<mxfile host="app.diagrams.net" modified="2024-03-02T09:36:09.527Z" agent="Mozilla/5.0 (Windows NT 10.0; Win64; x64) AppleWebKit/537.36 (KHTML, like Gecko) Chrome/122.0.0.0 Safari/537.36" version="24.0.0" etag="M9uSTIWjqh_SraU_NOYE" type="github">
  <diagram name="Page-1" id="BNnx7O8fe3eySqG9kdra">
    <mxGraphModel>
      <root>
        <mxCell id="0" />
        <mxCell id="1" parent="0" />
      </root>
    </mxGraphModel>
  </diagram>
</mxfile>
